<svg display="none" xmlns="http://www.w3.org/2000/svg">
	<symbol id="menu5" viewBox="-29 31 40 40">
		<path id="XMLID_40_" d="M8.5 58.3c-.3 0-.2.3-.3.5-2.7 5.7-7 9.3-13.1 10.8-4.9 1.2-9.6.6-13.9-1.9-5.6-3.3-8.9-8.2-9.7-14.6-1-8.3 3.3-16 10.7-19.8 8.3-4.2 18.5-2 24.3 5.3 1.7 2.2 3.2 4.6 3.7 7.4.8 4.5.6 8.9-1.2 13.1-1.8 4.1-4.6 7.2-8.4 9.4-2.9 1.7-6 2.5-9.4 2.3.9 0 1.8 0 2.6-.3 1.6-.6 3.3-.9 4.8-1.6 1.6-.7 3-1.6 4.4-2.7 1.3-1.1 2.5-2.4 3.5-3.8.7-1.3 1.4-2.7 2-4.1.2-.2.2-.5.3-.7 1.2-3.3 1.4-6.9.7-10.3-1-4.7-3.4-8.6-7.4-11.4-4.2-3-8.8-4.2-13.9-3.4-7.1 1.1-12.1 5-14.7 11.7-2.4 6.3-1.6 12.3 2.4 17.7 3.5 4.8 8.4 7.2 14.3 7.5 4.6.2 8.6-1.3 12.1-4.3 3.6-3 5.7-6.9 6.5-11.5.1-.8.2-1.6.2-2.4h.1c0 4.2-1.3 7.9-3.7 11.3 1.4-1.6 2.4-3.5 3.1-5.6.3.6-.1.9 0 1.4z" class="st0"/><path id="XMLID_42_" d="M-15.6 51.7c-.2-.1-.4-.1-.6-.2-.2 0-.4-.1-.5-.3-.4-.4-.7-.8-.9-1.3s-.4-1-.5-1.5c0-.3 0-.6 0-.9.1-.4.2-.7.3-1.1.1-.3.3-.7.4-1s.3-.5.5-.8c.2-.4.6-.7.9-.8.3-.1.7-.2 1-.2.4 0 .7.2 1 .4s.7.4 1 .7c.1.1.3.3.4.4.1.1.3.3.3.5.2.5.4 1 .4 1.6.1.6 0 1.2-.1 1.8s-.3 1.1-.6 1.6-.7.8-1.2 1c-.3.1-.6.2-.9.2-.3 0-.6 0-.9-.1.1.1.1 0 0 0zm-2-4.3c0 .1 0 .3 0 .4l.1-.1.1-.1.8-.8c0-.1 0-.2.1-.4 0-.1 0-.3.1-.4 0-.1.1-.2.1-.5.1-.2.2-.4.3-.6.1-.2.2-.3.3-.5.1-.1.3-.2.4-.2.2 0 .3.1.5.2.1.1.3.2.4.3h.1s.1 0 .1-.1c0 0 .1 0 .1-.1l-.1-.1s-.1 0-.1-.1l-.3-.1-.3-.1c-.3-.1-.7 0-.9.2-.3.3-.6.6-.8.9-.2.4-.4.7-.6 1.1-.2.4-.3.7-.4 1.1zm.3 2.4c0 .1.1.2.2.2 0 0 .1 0 .2 0s.1-.1.2-.1c.1-.1.1-.1.2-.2 0 0 0 0 .1 0 0 0 0 0 .1 0v-.2c-.1-.3-.1-.5-.2-.7 0-.2-.1-.5-.1-.7-.5.2-.8.5-.9.7-.2.2-.1.5.2 1zm-.2-1.5c0 .1 0 .2 0 .2 0-.1.1-.1 0-.2.1 0 0 0 0 0zm.5-.5c-.1 0-.1.1-.1.1l-.1.1c.1 0 .2-.1.2-.2zm.2-.1c.1-.1.2-.2.1-.2h-.1c0 .1 0 .1 0 .2zm.3 3c.1 0 .1-.1.2-.1s.1-.1.2-.1v-.1s0-.1-.1-.1l-.3.4zm1.3-.2c.1.1.3.1.4.1.1 0 .2-.1.3-.2.1-.1.1-.2.2-.3 0-.1.1-.3.1-.4s.1-.2.1-.3 0-.2 0-.2l.2-2.5c0-.3 0-.5-.1-.8-.1-.2-.3-.5-.4-.7-.2-.3-.5-.4-.7-.3-.3.2-.5.4-.6.7-.2.4-.3.8-.4 1.3s-.1 1-.1 1.5.1.9.3 1.4c.2.4.4.6.7.7zm-.2.7c.1 0 .2.1.3.1s.2 0 .3-.1c-.2 0-.5-.1-.7-.2s-.4-.3-.6-.5c0 .1 0 .2 0 .3 0 0 0 .1-.1.1 0 0 0 .1.1.1.2 0 .4.1.7.2zm-.1 7.3c.1-.1.1-.1 0 0 .1-.2.2-.3.3-.4l.3-.4c.1-.1.2-.3.3-.4l.1-.2.4-.6c.2-.3.4-.6.6-.9.2-.3.4-.7.6-.9.2-.3.3-.5.4-.6l.1-.1c0-.1.1-.2.2-.3s.2-.2.3-.4c.1-.1.2-.3.3-.4s.1-.2.2-.3l.4-.5.6-.8c.2-.3.4-.5.6-.8.2-.2.3-.4.3-.5.1-.1.2-.3.4-.6l.6-.9c.2-.3.4-.6.6-.9.2-.3.3-.5.4-.6h.1s.1-.1.2-.2.1-.2.2-.3l.2-.3c0-.1.1-.1.1-.2 0 0 .1-.1.2-.3s.2-.3.3-.5.2-.4.3-.5c.1-.1.1-.3.2-.3l.2-.3c.1-.1.1-.2.2-.3h.1c.1 0 .3 0 .5 0 .1 0 .3 0 .4.1.1 0 .2.1.3.2.1.1.1.3.1.5s-.1.5-.3.7c-.1.2-.3.4-.5.6-.2.2-.3.4-.5.6s-.3.4-.5.6c-.5.8-.9 1.5-1.4 2.3-.5.8-.9 1.5-1.5 2.2 0 .1-.2.2-.4.5s-.4.6-.7.9c-.2.3-.5.6-.7.9-.2.3-.3.4-.4.5-.2.3-.4.6-.6 1-.1.3-.3.7-.5 1 0 .1-.1.2-.2.3l-.3.4c-.1.1-.2.3-.2.4 0 .1-.1.1-.1.2 0 0-.1.1-.2.3-.1.1-.2.3-.4.5l-.4.4c-.1.1-.2.2-.2.3-.1.1-.2.3-.3.4-.1.1-.2.2-.4.2-.1 0-.2 0-.2 0-.1 0-.2 0-.2 0h-.4l-.1-1.3zm.6 0c-.1 0-.1 0 0 0 0 .1 0 .2 0 .2s0-.1 0-.2zm.5-.6s-.1.1-.2.2-.1.1-.2.2c.3-.2.5-.5.8-.7s.5-.5.7-.8c0-.1.1-.1.1-.2l.2-.4c.1-.1.2-.3.3-.4.1-.1.2-.3.2-.3s0-.1.1-.1v-.1c-.2.2-.4.4-.6.6-.2.2-.3.4-.5.7l-.5.7c0 .2-.2.4-.4.6zm.9-11.9c0 .1.1.2.1.3 0 .2 0 .3.1.4.2-.2.4-.3.5-.5.1-.1.2-.2.2-.4 0-.1-.1-.3-.2-.4-.2-.2-.3-.3-.5-.5l-.4.4c0 .1.1.2.1.3.1.3.1.4.1.4zm-.2 4c.1 0 .1-.1.2-.1s.1-.1.2-.1l1-1c0-.1 0-.2.1-.3 0-.1 0-.2 0-.4h-.1l-.2.1h-.5s-.1.1-.2.1-.1.1-.2.2l-.3 1.5zm.1-5.3s0 .1 0 0c0 .1 0 .2 0 .2.1 0 .1 0 0-.2.1.1.1 0 0 0zm.7 5.4c-.1.1 0 .2 0 .2.1-.1.1-.1 0-.2.1 0 .1 0 0 0zm.3-.2s-.1 0 0 0c-.1.1-.1.1 0 0-.1.1-.1.1 0 0 0 .1 0 0 0 0zm.1-2.4h.2s0 0 0-.1 0-.1-.1-.1c.1 0-.1.2-.1.2zm0 2.1c0 .1 0 .2 0 .2.1 0 .1-.1 0-.2.1 0 .1 0 0 0zm1.7 2.9c0 .1-.1.2-.2.3-.1.2-.2.4-.4.5l-.3.5c-.1.1-.1.2-.2.4.1-.1.3-.2.4-.4.1-.1.3-.3.4-.4.1-.1.2-.3.4-.6s.4-.6.7-.8l.7-.8.4-.6s.1-.1.1-.2l.3-.4c.1-.2.2-.3.3-.5s.2-.3.2-.4c0 0 .1-.1.1-.2s.1-.2.2-.3c0-.1.1-.2.1-.3s0-.1 0-.2c-.1.1-.2.2-.3.3s-.2.2-.3.3l-1.3 1.8c-.4.7-.8 1.3-1.3 2zm5.6 6.6c-.5-.1-.9-.3-1.3-.5-.3-.2-.6-.5-.8-.8-.2-.3-.3-.7-.4-1-.1-.4-.1-.9-.2-1.4 0-.3 0-.6 0-.9 0-.3.1-.7.2-1s.2-.6.4-.9c.1-.3.3-.5.5-.8.1-.1.2-.2.3-.3.1-.1.2-.2.3-.3.1-.1.2-.2.4-.3.1-.1.2-.1.4-.1s.4 0 .6 0l.6.2c.6.2 1.2.7 1.6 1.2.4.6.8 1.2.9 1.9.2.7.2 1.4.1 2.1-.1.7-.4 1.3-.8 1.8-.4.4-.8.7-1.4.9-.3.3-.9.3-1.4.2zm-2.1-11.7l-.2.2c.1-.1.3-.2.4-.4.1-.1.3-.3.4-.4l.3-.5c.2-.3.3-.5.5-.8s.3-.6.5-.8l.3-.5s0 0 0-.1c0 0 0 0 0-.1-.1 0-.2 0-.3.1 0 .1-.1.1-.1.2-.1.1-.1.2-.2.4-.1.1-.2.3-.2.4s-.1.1-.1.2c-.1.1-.1.2-.2.3s-.1.2-.3.3c0 0-.1.1-.2.3s-.2.3-.3.4l-.3.5c.1.2 0 .3 0 .3zm0 7.8c0 .1 0 .1 0 0 .1 0 .1-.1.2-.1 0 0 0-.1.1-.1 0-.1.1-.1.1-.2.1-.1.1-.1.2-.2s.2-.2.2-.2l.1-.1.1-.4c-.1.1-.2.1-.3.1-.1 0-.2 0-.3 0-.1-.1-.1-.2 0-.3 0 0 .1-.1 0-.2-.2.1-.3.3-.4.5s-.1.4-.1.6l.1.6zm.1 1.3c0 .1.1.1 0 0 0 .1.1.1.1.2.2-.2.3-.3.5-.4.1-.1.2-.2.2-.4 0-.1.1-.3.1-.4 0-.2 0-.4-.1-.6-.3.3-.6.6-.8.9 0 .1 0 .3 0 .4 0 .1 0 .2 0 .3zm.4 1c.1 0 .1 0 0 0 .1.1.1.1.2.1 0-.1.1-.2.1-.3.1-.1.1-.2.2-.3 0-.1.1-.2.1-.3s0-.2 0-.3c-.1 0-.2.1-.3.2-.1.1-.2.1-.2.2-.1.1-.1.2-.1.3-.1.2 0 .3 0 .4zm0-4.7s0 .1 0 0c-.1.1-.1.1 0 0 .2-.1.5-.4.7-.6.3-.2.5-.4.7-.7-.1 0-.2 0-.3.1-.1.1-.3.2-.4.4-.1.1-.3.3-.4.4-.1.2-.2.3-.3.4zm.3.5l.2-.2.2-.2v-.1l-.2.2-.2.3zm.1 4.5c.1 0 .2 0 .3-.1.1-.1.1-.2.1-.3h-.1s-.1.1-.2.1-.1.2-.1.3zm.4.3c.1.1.1.1.2.1s.1-.1.2-.1c0-.1-.1-.1-.1-.2h-.1c-.1 0-.1.1-.2.2 0-.1 0 0 0 0zm1.3-.4c.2.1.4.1.6-.1.2-.2.3-.5.3-.8.1-.4.1-.8.1-1.2 0-.5 0-.9-.1-1.4 0-.4-.1-.8-.2-1.2-.1-.3-.2-.6-.4-.7-.1-.1-.2-.1-.3-.1s-.2 0-.4 0c-.2.2-.4.4-.5.7s-.2.7-.3 1c-.1.4-.1.8 0 1.1 0 .4.1.8.2 1.1s.2.6.4.9c.1.4.4.6.6.7zm-.8.4c0 .1.1.2.1.2.1.1.2.1.3 0 0 0-.1-.1-.2-.1 0 0-.1-.1-.2-.1zm.7.3H-5h.2c-.1 0-.1 0 0 0zm.6 0c-.1 0-.2 0-.2 0-.1 0-.2 0-.2 0 .4.1.9 0 1.3-.2.3-.2.6-.5.9-.8s.4-.7.5-1.1c.1-.4.1-.8.1-1.3-.1.1-.3.3-.5.4-.1.1-.2.2-.3.3s-.2.2-.2.3c-.1.2-.1.4-.2.5 0 0 0 .1-.1.3 0 .1-.1.2-.1.3s-.1.2-.2.3-.1.2-.2.3-.2.2-.2.3l-.4.4zm.3-6.6s-.1 0 0 0c-.1 0 0 .1 0 0 0 .1 0 0 0 0zm.1.6c.1 0 .1-.1 0 0 .1-.1 0-.1 0 0zm.6 2.1c0 .1 0 .2 0 .3s0 .2 0 .4l.9-.9s0 0 0-.1v-.1s0-.1-.1-.2l-.1-.1c0-.1-.1-.1-.1-.2s-.1-.1-.1-.2l-.1-.1c0-.1-.1-.1-.2 0-.2.1-.3.3-.5.5 0 .2 0 .3 0 .5.2-.1.3.1.3.2zm-.1-2.3s0 .1 0 0c-.1.1 0 .2 0 .2.1 0 .1 0 0-.2.1.1.1 0 0 0zm0 .6c.1-.1.2-.1.2-.2s0-.1-.1-.2l-.1.4zm.2 2.9l.3-.2c.1-.1.2-.2.3-.3s.2-.2.3-.3.1-.2.1-.3c-.1.1-.2.1-.3.2-.1.1-.2.2-.3.3l-.1.1-.1.1c-.1.2-.1.3-.2.4z" class="st0"/>
	</symbol>
	<symbol id="menu1" viewBox="0 0 440.94 474.82">
		<path class="cls-1" d="M1.07,88.52,133.38,326.94l16.43,29.59v0L213,470.44a8.49,8.49,0,0,0,14.86,0l212-381.92a8.49,8.49,0,0,0-2.36-10.94c-1.06-.79-26.6-19.68-66.12-38.78C334.79,21.1,278.89,0,220.47,0c-32.24,0-84.6,6.73-150.92,38.8C30,57.9,4.49,76.79,3.43,77.58A8.49,8.49,0,0,0,1.07,88.52ZM170,357.79a56.8,56.8,0,1,0-54.54-98.28L47.81,137.7C87,114.23,152.22,75.35,220.47,75.35s133.47,38.88,172.66,62.35L220.46,448.8Zm-26.63-48-19.54-35.22a39.81,39.81,0,1,1,37.8,68.12ZM19.65,87c23.28-15.76,110-70,200.82-70S398,71.2,421.29,87l-19.9,35.86C360.63,98.42,293.12,58.35,220.47,58.35S80.31,98.42,39.55,122.83Z"/><path class="cls-1" d="M212,187.58a63.86,63.86,0,1,0,63.86-63.86A63.93,63.93,0,0,0,212,187.58Zm17,0a46.86,46.86,0,1,1,46.86,46.85A46.91,46.91,0,0,1,229,187.58Z"/><path class="cls-1" d="M158.39,177.58a36.31,36.31,0,1,0-36.3,36.3A36.35,36.35,0,0,0,158.39,177.58Zm-17,0a19.31,19.31,0,1,1-19.3-19.31A19.32,19.32,0,0,1,141.39,177.58Z"/><path class="cls-1" d="M271.74,306a8.5,8.5,0,1,1-5.13,16.21,23,23,0,0,0-28.81,14.95,8.5,8.5,0,0,1-16.21-5.14A40,40,0,0,1,271.74,306Z"/><path class="cls-1" d="M287.67,151.57a3.5,3.5,0,0,1-2.11,6.68,30.67,30.67,0,0,0-38.47,19.95,3.5,3.5,0,0,1-6.68-2.11A37.69,37.69,0,0,1,287.67,151.57Z"/><path class="cls-1" d="M159.5,272.91A35,35,0,0,1,178,318.76a3.5,3.5,0,0,1-3.22,2.13,3.5,3.5,0,0,1-3.22-4.87,28,28,0,0,0-14.77-36.67,3.5,3.5,0,1,1,2.74-6.44Z"/><path class="cls-1" d="M177,158.27a8.28,8.28,0,0,1-2.39-.35,8.49,8.49,0,0,1-5.77-10.54A15.93,15.93,0,0,0,158,127.66a8.5,8.5,0,1,1,4.76-16.32,32.93,32.93,0,0,1,22.36,40.81A8.5,8.5,0,0,1,177,158.27Z"/>
	</symbol>
	<symbol id="menu2" viewBox="0 0 464.01 401.67">
		<path class="cls-1" d="M455.51,186.13h-22.9C443,152,442.27,96.56,412.67,82.25c-9.27-4.48-20.58-4.47-33.15-.12a63.81,63.81,0,0,0-5.68-16.32C366,50.36,349.14,32.24,330.9,19.65,308,3.87,287.08-.57,271.9,7.14c-12.13,6.16-20.19,19.79-23.31,39.43-.19,1.18-.35,2.39-.5,3.62C241.64,26,229.06,5.11,210,.82c-30.75-6.94-62.55,31.42-77,61.7-6.4-6.84-13.63-11.1-21.4-12.49C94.81,47,76,57.36,58.73,79.1,44.92,96.42,34,118.64,31,135.71a63.92,63.92,0,0,0,12.2,50.42H8.5a8.5,8.5,0,0,0-8.5,8.5c0,4.75,6.26,29,7.51,33.78A232,232,0,0,0,232,401.67c60.49,0,118.66-22.94,163.8-64.6,43.34-40,68.2-91.92,68.2-142.44A8.5,8.5,0,0,0,455.51,186.13ZM105.89,151.39l.06-1.75c0-.41,0-.81,0-1.22,0-.6.07-1.2.11-1.8l.06-1.11c0-.65.11-1.29.17-1.94,0-.31,0-.62.08-.93.08-.82.17-1.64.27-2.45,0-.12,0-.24,0-.35.12-.93.25-1.84.39-2.75l.12-.66c.11-.67.22-1.33.35-2,.06-.31.13-.62.19-.94.11-.54.23-1.09.35-1.62.07-.34.16-.68.24-1,.12-.49.24-1,.37-1.47s.19-.68.29-1,.26-.91.4-1.35.22-.67.33-1,.28-.85.43-1.26.25-.65.37-1,.31-.8.47-1.19.27-.62.41-.93.34-.74.51-1.1l.44-.88c.18-.35.37-.69.56-1s.31-.55.47-.81.4-.65.61-1l.5-.75c.21-.3.43-.59.65-.87s.35-.46.53-.68.48-.54.72-.81.36-.4.55-.58.53-.51.8-.75.35-.33.54-.48.62-.48.94-.71l.48-.35a14.31,14.31,0,0,1,1.5-.88,17.2,17.2,0,0,1,4.64-1.52,23.5,23.5,0,0,1,5.58-.29l.53,0h0c.37,0,.76.09,1.13.13l1.26.15c.42.06.86.16,1.29.24l1.24.24c.45.1.91.22,1.36.34l1.27.33c.47.13.94.29,1.41.44l1.3.42c.48.16,1,.34,1.46.53l1.32.5,1.51.63,1.33.58,1.55.72,1.34.66,1.59.81c.45.24.9.48,1.34.73s1.09.59,1.63.91.89.52,1.33.78,1.12.66,1.68,1,.86.55,1.29.82,1.15.73,1.73,1.12l1.11.76q1.84,1.26,3.67,2.61c.39.28.77.55,1.15.84l1.63,1.26,1.42,1.12c.52.41,1,.85,1.55,1.27s1,.82,1.49,1.24,1,.86,1.5,1.3l1,.93-.09.27c-.12.32-.22.63-.34.95l-.66,1.9-.36,1.09-.57,1.76-.36,1.14c-.17.57-.35,1.14-.52,1.71l-.33,1.14c-.17.58-.33,1.15-.49,1.73l-.3,1.09c-.16.61-.32,1.22-.47,1.83-.08.32-.17.64-.24.95-.19.77-.37,1.53-.54,2.29,0,.16-.08.31-.11.47-.21.91-.4,1.82-.58,2.72l-.15.77c-.13.64-.25,1.28-.36,1.91-.06.33-.11.66-.17,1-.09.55-.19,1.1-.27,1.65-.06.35-.11.7-.16,1l-.21,1.55c0,.35-.09.7-.13,1-.06.51-.12,1-.17,1.5s-.07.69-.1,1q-.08.75-.12,1.5c0,.32-.05.64-.07,1,0,.54-.06,1.07-.08,1.6,0,.26,0,.52,0,.78,0,.78,0,1.55,0,2.3,0,1.22,0,2.43.1,3.64,0,.4.07.8.1,1.21.06.8.12,1.59.2,2.38.06.48.13,1,.2,1.43.09.71.19,1.43.31,2.13.08.5.18,1,.28,1.5.13.67.26,1.35.42,2,0,.16.06.32.1.48H109.68c-.23-1-.46-1.91-.67-2.89-.05-.21-.09-.43-.13-.64-.17-.78-.34-1.56-.49-2.35-.07-.36-.13-.72-.2-1.08-.12-.65-.24-1.29-.35-1.94-.07-.41-.13-.82-.2-1.23-.1-.61-.19-1.21-.28-1.82-.07-.43-.13-.87-.19-1.3-.08-.59-.16-1.18-.23-1.77s-.11-.89-.16-1.34-.13-1.16-.19-1.74-.09-.91-.13-1.36-.11-1.15-.15-1.73-.07-.91-.1-1.36l-.12-1.73c0-.45,0-.9-.07-1.35s0-1.15-.07-1.72,0-.9,0-1.34,0-1.15,0-1.72,0-.88,0-1.32,0-1.15,0-1.73C105.88,152.24,105.89,151.81,105.89,151.39Zm134.87-59.3h0a41.46,41.46,0,0,1,11.61,9.48l0,0c1.24,1.4,2.48,2.91,3.7,4.53a106.91,106.91,0,0,1,10.45,17.31c7.87,16.06,12.95,34.86,12.95,47.88q0,1.17-.06,2.31c0,.23,0,.45,0,.67,0,.58-.08,1.16-.14,1.73l-.06.63c-.08.76-.18,1.51-.3,2.26,0,.08,0,.17-.05.25-.11.67-.24,1.33-.38,2,0,.22-.09.44-.14.66-.13.57-.27,1.13-.42,1.7l-.15.55c-.19.69-.4,1.37-.62,2H187.25c-.22-.67-.43-1.35-.62-2l-.15-.55c-.15-.57-.29-1.13-.42-1.7-.05-.22-.1-.44-.14-.66-.14-.66-.27-1.32-.38-2,0-.08,0-.17,0-.25-.12-.75-.22-1.5-.3-2.26l-.06-.63c-.06-.57-.11-1.15-.14-1.73,0-.22,0-.44,0-.67q-.06-1.14-.06-2.31c0-2,.12-4.07.34-6.29.09-.85.2-1.72.32-2.6a128.94,128.94,0,0,1,8.25-29.94c10.46-25.91,25.53-42.65,38.41-42.65a18,18,0,0,1,6.94,1.5C239.68,91.58,240.22,91.82,240.76,92.09Zm43.08,27.68c.26-.47.53-.94.8-1.4.11-.2.23-.4.35-.6.27-.47.55-1,.84-1.41.1-.18.21-.36.32-.54l.87-1.41.3-.48.9-1.4c.1-.15.2-.3.29-.45l.93-1.38.28-.41.94-1.35.28-.39c.31-.44.63-.88.95-1.31l.28-.38,1-1.26c.09-.12.19-.24.28-.37l1-1.21.3-.38c.32-.38.63-.77.95-1.14.11-.14.23-.27.34-.4.31-.36.61-.72.92-1.06l.42-.47.84-.93c.32-.35.64-.68,1-1l.3-.32c.44-.45.88-.88,1.31-1.31l.1-.09L302,95.74l.11-.09c.41-.37.81-.74,1.22-1.09l.09-.07c.41-.36.82-.7,1.23-1l.06,0,1.27-1,0,0c.44-.33.87-.64,1.3-.94h0c5.26-3.68,10.39-5.5,15-5.13h0a18,18,0,0,1,6.54,1.91c5.33,2.68,10.67,8,15.63,15.7,1.14,1.76,2.26,3.63,3.36,5.63l0,0a112.92,112.92,0,0,1,5.2,11c6.38,15.56,10.34,33.89,10,47.46,0,1.14-.08,2.23-.17,3.29h0c-.06.76-.14,1.53-.24,2.28,0,.23-.06.46-.1.68-.08.55-.16,1.1-.26,1.65,0,.23-.08.46-.13.69-.13.67-.27,1.33-.43,2a2,2,0,0,1-.05.24c-.18.73-.38,1.46-.59,2.18l-.19.61c-.17.53-.34,1.06-.53,1.59l-.24.67c-.21.58-.44,1.17-.69,1.75l-.14.36a.36.36,0,0,0,0,.09H294.82l.09-.48c.16-.67.29-1.35.42-2,.1-.5.2-1,.29-1.5.11-.7.21-1.42.3-2.13.07-.47.14-1,.2-1.43.08-.79.14-1.58.2-2.38,0-.41.08-.81.1-1.21.07-1.21.1-2.42.1-3.64,0-.94,0-1.91-.06-2.89,0-.33,0-.66-.06-1,0-.67-.07-1.34-.12-2l-.12-1.22c-.06-.63-.11-1.25-.18-1.89-.05-.44-.11-.89-.17-1.33-.08-.62-.16-1.24-.25-1.87-.07-.46-.14-.93-.22-1.4-.1-.62-.2-1.25-.31-1.88-.08-.48-.17-1-.26-1.45s-.24-1.26-.37-1.89-.21-1-.32-1.49-.28-1.28-.42-1.92l-.36-1.51c-.16-.65-.32-1.3-.49-2-.13-.5-.26-1-.4-1.51-.18-.66-.37-1.33-.56-2l-.42-1.49-.63-2.06-.45-1.44-.72-2.17c-.15-.45-.3-.9-.46-1.35-.28-.8-.57-1.6-.86-2.4-.13-.37-.26-.74-.4-1.11q-1.31-3.51-2.79-7c-.15-.35-.31-.71-.47-1.06-.3-.7-.61-1.4-.92-2.1ZM405.27,97.56c9.25,4.47,15.15,18.9,16.18,39.6.84,16.81-1.83,35.69-6.76,49H377.41c.21-.68.38-1.37.56-2.06.11-.4.23-.79.33-1.19.18-.76.34-1.54.5-2.31.07-.34.15-.68.22-1,.17-.93.32-1.88.45-2.82,0-.19.07-.38.09-.57.15-1.14.28-2.28.37-3.44s.16-2.48.2-3.76c0-.42,0-.86,0-1.29,0-.87,0-1.74,0-2.64,0-.52,0-1,0-1.58,0-.83-.06-1.65-.11-2.49,0-.57-.07-1.15-.12-1.73-.06-.82-.12-1.65-.2-2.48-.06-.6-.12-1.2-.19-1.8q-.14-1.26-.3-2.52c-.08-.61-.17-1.22-.26-1.84-.12-.86-.26-1.73-.4-2.59-.1-.61-.2-1.22-.31-1.83-.16-.9-.34-1.82-.52-2.73-.11-.58-.22-1.15-.34-1.73-.22-1-.45-2-.69-3.05-.11-.48-.21-.95-.32-1.43-.37-1.5-.75-3-1.16-4.51,0,0,0,0,0-.07-.4-1.47-.83-2.94-1.28-4.41-.14-.48-.3-1-.45-1.45-.32-1-.64-2-1-3l-.6-1.7c-.31-.91-.63-1.81-1-2.71-.22-.59-.45-1.18-.68-1.77-.33-.86-.66-1.72-1-2.57-.24-.59-.48-1.18-.73-1.76-.35-.84-.71-1.67-1.07-2.49l-.78-1.73c-.15-.31-.28-.63-.43-.94l.16-.12c.73-.5,1.47-1,2.2-1.46l.77-.49,1.5-.93.95-.57,1.32-.77,1-.56c.41-.24.83-.46,1.24-.68l.91-.48,0,0C384.71,97.65,396.55,93.35,405.27,97.56ZM279.6,22.3c9.23-4.69,24.41-.56,41.65,11.34,15.83,10.93,30.87,27,37.44,39.87a46.84,46.84,0,0,1,4.84,16.14l-.29.18c-.75.44-1.49.89-2.24,1.36l-.79.5q-.93.59-1.86,1.2l-.5.33-.13-.18c-.51-.75-1-1.49-1.55-2.21l-.43-.59c-.52-.71-1-1.4-1.57-2.07-.13-.16-.26-.31-.38-.47-.46-.57-.91-1.12-1.37-1.66l-.44-.52c-.52-.6-1-1.17-1.57-1.74l-.55-.59c-.53-.55-1.05-1.08-1.58-1.6l-.53-.5c-.47-.44-.94-.88-1.41-1.3l-.51-.45c-.52-.45-1-.88-1.57-1.3l-.55-.44c-.56-.43-1.12-.85-1.68-1.25l-.54-.37c-.58-.4-1.17-.79-1.77-1.16l-.31-.19c-.56-.34-1.12-.66-1.69-1l-.41-.22c-.62-.33-1.24-.64-1.87-.93l-.44-.2c-.64-.28-1.29-.56-1.94-.81l-.26-.09c-.67-.25-1.34-.48-2-.68l-.12,0c-.71-.21-1.42-.4-2.14-.56l-.24-.06c-.72-.16-1.44-.3-2.17-.41l-.12,0c-.76-.11-1.51-.21-2.28-.27-8.35-.68-16.74,1.79-25,7.34a68.19,68.19,0,0,0-8.31,6.62l-.56.54-1.23,1.18-.86.87-1,1-.89.94-1,1.11c-.27.31-.55.6-.82.91-.54.63-1.09,1.27-1.63,1.92-.29.34-.57.69-.86,1L280.61,94l-.88,1.13-.91,1.2L278,97.47c-.46.63-.93,1.28-1.39,1.94l-.92,1.33c-.31.46-.63.92-.94,1.39l-.34.5-.31-.47-.59-.89c-.47-.71-.94-1.41-1.42-2.09l-.73-1c-.43-.61-.87-1.21-1.31-1.8l-.83-1.09c-.42-.54-.83-1.07-1.25-1.59s-.61-.76-.92-1.13l-.36-.44C261.18,63.39,264.43,30,279.6,22.3ZM170.68,36.45c13.1-14.25,26.09-21.2,35.62-19,7.7,1.73,15,9.89,20.54,23A123.61,123.61,0,0,1,235.17,73l-.76,0-.27,0c-.64,0-1.29-.06-1.93-.06s-1.27,0-1.9.06h-.13c-.57,0-1.13.09-1.7.15l-.38.05-1.45.22-.46.09c-.46.09-.93.18-1.39.29l-.47.11-1.4.38-.43.13c-.51.15-1,.32-1.52.5l-.29.1a42.12,42.12,0,0,0-5.53,2.48l-.09.06c-.57.3-1.13.62-1.69,1l-.28.17c-.5.31-1,.62-1.5,1l-.34.23c-.48.32-1,.65-1.45,1l-.33.24c-.5.36-1,.74-1.49,1.12l-.25.2c-.56.44-1.12.89-1.67,1.36l0,.05a69.38,69.38,0,0,0-5.25,5v0c-.55.58-1.1,1.17-1.64,1.78l-.18.21c-.49.55-1,1.11-1.46,1.69a3.11,3.11,0,0,0-.23.28c-.48.57-.95,1.15-1.42,1.74l-.21.27c-.5.63-1,1.27-1.48,1.92a.91.91,0,0,1-.11.16,110.47,110.47,0,0,0-6.24,9.41l0,.08c-.47.79-.94,1.6-1.4,2.42,0,.1-.11.2-.17.3-.42.76-.84,1.52-1.25,2.3l-.21.38c-.41.77-.81,1.56-1.21,2.35-.06.12-.12.24-.19.36-.13.27-.26.53-.4.79l-.63-.51-1.83-1.49-1.1-.88q-1.35-1-2.67-2c-.34-.26-.68-.5-1-.75l-1.76-1.27-1.21-.85-1.57-1.07-1.15-.76c-.73-.48-1.45-.94-2.17-1.39l-1.21-.75-1.61-1-1.14-.66-1.39-.77-1.1-.61-1.62-.84c-.47-.24-.93-.48-1.39-.7s-1-.5-1.5-.73l-1-.49-1.2-.54-1-.44c-.43-.19-.85-.36-1.27-.53L151,95.63l-1.35-.51-1-.35-1-.34-1-.32-.93-.29-1.45-.43-.95-.27-.93-.25-.7-.17-.46-.12c.06-.68.15-1.36.24-2,0-.31.07-.63.12-1,.08-.5.19-1,.28-1.5s.19-1.08.31-1.61.3-1.27.48-1.94l0-.09c.17-.64.36-1.3.56-2l0,0C147.76,67.73,158.51,49.69,170.68,36.45Zm-123,102.24c5.12-28.75,37.76-76,60.88-71.92C116,68.09,122,74.83,126,81.21c-.13.51-.25,1-.37,1.5v.05c-.27,1.21-.5,2.44-.7,3.67,0,.22-.08.44-.11.66s0,.38-.08.56c-.08.56-.16,1.12-.22,1.68v0c-.09.73-.16,1.46-.22,2.19h0c-.22,0-.44.08-.65.12-.52.08-1,.17-1.55.27l-1.12.25c-.52.12-1,.26-1.54.41q-.51.14-1,.3c-.56.17-1.11.38-1.65.58l-.83.31c-.81.33-1.61.69-2.39,1.09s-1.48.8-2.2,1.23l-.27.17c-.67.42-1.33.86-2,1.33l-.33.24q-.94.7-1.83,1.47l-.3.27c-.6.52-1.18,1.06-1.75,1.63l-.18.2c-.57.57-1.12,1.17-1.65,1.79l-.09.1c-.54.63-1,1.28-1.55,2l-.23.3c-.48.64-.93,1.31-1.38,2l-.25.38c-.44.68-.86,1.37-1.27,2.09l-.2.37c-.42.73-.82,1.49-1.2,2.26,0,.07-.07.14-.1.2-.38.77-.74,1.55-1.09,2.35a2.29,2.29,0,0,0-.1.23c-.35.8-.68,1.62-1,2.45l-.16.42c-.3.81-.59,1.63-.87,2.47,0,.16-.11.32-.16.48q-.41,1.26-.78,2.55c0,.13-.07.27-.11.41-.25.9-.5,1.81-.72,2.73l0,.15c-.22.91-.43,1.82-.62,2.75,0,.12-.05.24-.08.36-.18.91-.35,1.84-.51,2.77l-.09.52c-.16.91-.3,1.83-.43,2.76,0,.18-.05.35-.07.53-.13.95-.25,1.89-.35,2.85,0,.13,0,.27-.05.41q-.15,1.47-.27,2.94s0,.08,0,.12c-.08,1-.14,2-.2,3,0,.15,0,.3,0,.46,0,1-.09,1.94-.12,2.91,0,.19,0,.38,0,.57,0,1,0,1.93,0,2.89v.55c0,1,0,2,0,3,0,.13,0,.25,0,.37q0,1.47.09,2.94c0,.09,0,.18,0,.27,0,1,.09,2,.16,3l0,.51q.09,1.45.21,2.88c0,.2,0,.39,0,.59q.12,1.42.27,2.85c0,.17,0,.35,0,.52.11,1,.22,2,.34,2.92,0,.09,0,.18,0,.27.12.94.25,1.89.38,2.82,0,.12,0,.24,0,.35.14.95.29,1.88.45,2.81,0,.18,0,.35.08.52.16.91.32,1.8.49,2.69,0,.18.06.36.1.54.17.9.35,1.78.53,2.66l0,.15H67.71A47,47,0,0,1,47.73,138.69Zm399,64.44a146.68,146.68,0,0,1-2.56,19.64H23.61c-2.18-8.41-3.76-15-4.82-19.64ZM384.28,324.58c-42,38.75-96.07,60.09-152.27,60.09A215,215,0,0,1,25.53,229.77h417.1C434.23,263.89,414,297.17,384.28,324.58Z"/><path class="cls-1" d="M164.6,341.1a157.34,157.34,0,0,1-56.87-41.75,3.5,3.5,0,0,0-5.3,4.56,164.3,164.3,0,0,0,59.4,43.62,3.39,3.39,0,0,0,1.38.29,3.5,3.5,0,0,0,1.39-6.72Z"/><path class="cls-1" d="M208.26,134.83a3.5,3.5,0,0,0-4.67,1.65,86.26,86.26,0,0,0-8.29,39,3.51,3.51,0,0,0,3.5,3.41h.09a3.5,3.5,0,0,0,3.41-3.59,79.23,79.23,0,0,1,7.61-35.77A3.5,3.5,0,0,0,208.26,134.83Z"/><path class="cls-1" d="M162.88,71.42a3.49,3.49,0,0,0,4.61-1.79,103.46,103.46,0,0,1,28.79-37.95,3.5,3.5,0,1,0-4.45-5.4,110.41,110.41,0,0,0-30.75,40.53A3.51,3.51,0,0,0,162.88,71.42Z"/><path class="cls-1" d="M62.56,165.13A3.49,3.49,0,0,0,65,160.85a62.56,62.56,0,0,1,15.57-58.91,3.5,3.5,0,0,0-5-4.9,69.67,69.67,0,0,0-17.35,65.61,3.52,3.52,0,0,0,3.38,2.6A3.56,3.56,0,0,0,62.56,165.13Z"/><path class="cls-1" d="M114.78,167.1a3.5,3.5,0,0,0,3.4,2.7,3.72,3.72,0,0,0,.81-.09,3.5,3.5,0,0,0,2.6-4.21,58.83,58.83,0,0,1,5-40,3.5,3.5,0,1,0-6.22-3.22A65.89,65.89,0,0,0,114.78,167.1Z"/><path class="cls-1" d="M275.72,45.73a3.47,3.47,0,0,0,4.27-2.5,13.88,13.88,0,0,1,11.23-9.88,3.5,3.5,0,0,0-.9-6.94,20.84,20.84,0,0,0-17.1,15.05A3.5,3.5,0,0,0,275.72,45.73Z"/><path class="cls-1" d="M291.1,122.9c5,6.16,6.16,10.51,6.16,10.52a3.49,3.49,0,0,0,3.41,2.71,3.61,3.61,0,0,0,.79-.09,3.49,3.49,0,0,0,2.62-4.2c-.12-.53-1.26-5-6-11.41a55.86,55.86,0,0,1,20.33-19,3.5,3.5,0,0,0-3.33-6.16,62,62,0,0,0-24.27,23.69A3.51,3.51,0,0,0,291.1,122.9Z"/>
	</symbol>
	<symbol id="menu4" viewBox="0 0 338.35 613.25">
		<path class="cls-1" d="M329.85,151.34H317.69V130.08a8.5,8.5,0,0,0-8.5-8.5H206.08V57.52l38.48-37.1a3.5,3.5,0,0,0,.09-5L230.77,1.07A3.52,3.52,0,0,0,228.31,0a3.47,3.47,0,0,0-2.49,1L186.26,39.12a3.63,3.63,0,0,0-.79,1.15l-6.12,14.39a3.61,3.61,0,0,0-.28,1.37v65.55H29.16a8.5,8.5,0,0,0-8.5,8.5v21.26H8.5a8.51,8.51,0,0,0-8.5,8.5v55a8.5,8.5,0,0,0,8.5,8.5H20.27L55.83,605.54a8.5,8.5,0,0,0,8.46,7.71H274.06a8.5,8.5,0,0,0,8.46-7.71L318.08,223.3h11.77a8.5,8.5,0,0,0,8.5-8.5v-55A8.51,8.51,0,0,0,329.85,151.34ZM186.07,56.75l5.56-13.08L228.16,8.45l9,9.36-37,35.7A3.48,3.48,0,0,0,199.08,56v65.55h-13ZM37.66,138.58h263v12.76h-263ZM284.38,402c-58.51,3.19-84.9,40.47-110.45,76.59-25.81,36.48-50.29,71-105.95,74.1L57.05,435.13c59.23-3.38,91.34-40.68,122.43-76.8s60.72-70.49,115.83-73.82ZM266.31,596.25H72l-3.4-36.58c58.89-3.39,85.37-40.81,111-77,25.52-36.07,49.72-70.21,104.08-73.56ZM296,277.44c-58.82,3.18-90.81,40.34-121.79,76.33-31.54,36.63-61.42,71.29-117.78,74.36L37.34,223.3H301Zm25.38-71.14H17v-38H321.35Z" id="Soda"/>
	</symbol>
	<symbol id="menu3" viewBox="0 0 402.65 480.34">
		<path class="cls-1" d="M402.65,242.62a55.07,55.07,0,0,0-55.07-55.07h-6A55.05,55.05,0,0,0,301.84,94.4H297c-2.17-13-9.55-22.37-22-28.07-13.6-6.22-31.9-7-46.33-7A31.26,31.26,0,0,1,207.78,52c-4.49-4-7.16-9.14-7.16-13.86,0-11.26,4.83-19.65,7-20.92a8.5,8.5,0,0,0,.2-17c-2.46-.18-60.63-3.88-88.53,30.25C106.06,46.62,102,68.1,107.22,94.4h-6.41A55.08,55.08,0,0,0,61,187.55h-6a55.07,55.07,0,0,0-7.8,109.59L85.82,473.66a8.51,8.51,0,0,0,8.31,6.68H308.52a8.51,8.51,0,0,0,8.31-6.68l38.55-176.53A55.15,55.15,0,0,0,402.65,242.62ZM242.57,463.34l10.36-165.65H294L273.28,463.34Zm-113.2,0L108.65,297.69h41.07l10.36,165.65Zm27.36-165.65h41.1V463.34H167.09Zm48.1,0h41.09L235.56,463.34H204.83Zm-140,0H101.6l20.72,165.65H101ZM301.68,463.34H280.33l20.72-165.65h36.81Zm46.09-182.65H54.87a38.07,38.07,0,0,1,.2-76.14H184.92a8.5,8.5,0,1,0,0-17H100.81a38.08,38.08,0,0,1,0-76.15H116a8.17,8.17,0,0,0,2.1.27,8.86,8.86,0,0,0,2.09-.26,8.5,8.5,0,0,0,6.15-10.33l-.05-.2s0-.09,0-.14,0-.07,0-.11c-7.12-25.61-5-45.59,6.23-59.38,13.58-16.65,38-22,55.07-23.57a56.72,56.72,0,0,0-3.86,20.41c0,9.66,4.7,19.36,12.9,26.6A48.25,48.25,0,0,0,228.6,76.31c35.25,0,47.57,6.74,51,18.09H227.66a8.5,8.5,0,0,0,0,17h74.18a38.08,38.08,0,0,1,0,76.15,8.5,8.5,0,0,0,0,17h45.74a38.07,38.07,0,0,1,.19,76.14Z"/><path class="cls-1" d="M240.12,230a15.72,15.72,0,1,0,15.71,15.72A15.74,15.74,0,0,0,240.12,230Zm0,24.44a8.72,8.72,0,1,1,8.71-8.72A8.73,8.73,0,0,1,240.12,254.48Z"/><path class="cls-1" d="M73.29,229.1a10.16,10.16,0,1,0-10.16,10.16A10.17,10.17,0,0,0,73.29,229.1Zm-10.16,3.16a3.16,3.16,0,1,1,3.16-3.16A3.15,3.15,0,0,1,63.13,232.26Z"/><path class="cls-1" d="M350.08,218.94a10.16,10.16,0,1,0,10.17,10.16A10.17,10.17,0,0,0,350.08,218.94Zm0,13.32a3.16,3.16,0,1,1,3.17-3.16A3.16,3.16,0,0,1,350.08,232.26Z"/><path class="cls-1" d="M147.18,129a11.28,11.28,0,1,0,11.28,11.28A11.29,11.29,0,0,0,147.18,129Zm0,15.55a4.28,4.28,0,1,1,4.28-4.27A4.28,4.28,0,0,1,147.18,144.51Z"/><path class="cls-1" d="M164.21,57.13a11.28,11.28,0,1,0,11.28,11.28A11.28,11.28,0,0,0,164.21,57.13Zm0,15.55a4.28,4.28,0,1,1,4.28-4.27A4.27,4.27,0,0,1,164.21,72.68Z"/><path class="cls-1" d="M262,142.66a12.39,12.39,0,1,0,12.39,12.39A12.41,12.41,0,0,0,262,142.66Zm0,17.77a5.39,5.39,0,1,1,5.39-5.38A5.39,5.39,0,0,1,262,160.43Z"/><path class="cls-1" d="M134.17,252.91a11.28,11.28,0,1,0,11.27,11.27A11.28,11.28,0,0,0,134.17,252.91Zm0,15.55a4.28,4.28,0,1,1,4.27-4.28A4.28,4.28,0,0,1,134.17,268.46Z"/><path class="cls-1" d="M167.47,220.83a3.5,3.5,0,0,0-4.88.82,9.52,9.52,0,0,1-13.28,2.24,3.5,3.5,0,1,0-4.06,5.7,16.54,16.54,0,0,0,23.05-3.88A3.5,3.5,0,0,0,167.47,220.83Z"/><path class="cls-1" d="M311.52,250.61a3.5,3.5,0,0,0-4.12,5.66,9.53,9.53,0,0,1,2.09,13.3,3.5,3.5,0,0,0,5.66,4.12A16.55,16.55,0,0,0,311.52,250.61Z"/><path class="cls-1" d="M234.81,192.48a3.5,3.5,0,0,0,.34-7,9.53,9.53,0,0,1-8.52-10.43,3.5,3.5,0,0,0-7-.7,16.54,16.54,0,0,0,14.79,18.09A2.17,2.17,0,0,0,234.81,192.48Z"/><path class="cls-1" d="M109,147.56a16.5,16.5,0,0,0-22.35,6.79,3.51,3.51,0,0,0,1.44,4.74,3.44,3.44,0,0,0,1.64.41,3.5,3.5,0,0,0,3.09-1.85,9.52,9.52,0,0,1,12.89-3.92,3.5,3.5,0,1,0,3.29-6.17Z"/><path class="cls-1" d="M183.65,101.62a3.5,3.5,0,1,0-2.22,6.64,9.53,9.53,0,0,1,6,12.06,3.51,3.51,0,0,0,2.21,4.43,3.58,3.58,0,0,0,1.11.18,3.49,3.49,0,0,0,3.32-2.39A16.54,16.54,0,0,0,183.65,101.62Z"/><path class="cls-1" d="M305.32,134.35A9.53,9.53,0,0,1,314,144.67a3.5,3.5,0,0,0,3.18,3.79h.31a3.49,3.49,0,0,0,3.48-3.19,16.53,16.53,0,0,0-15-17.9,3.5,3.5,0,1,0-.61,7Z"/><path class="cls-1" d="M84.56,253.13a16.53,16.53,0,0,0-17.83,15.11,3.5,3.5,0,0,0,3.2,3.77h.3a3.49,3.49,0,0,0,3.48-3.21A9.51,9.51,0,0,1,84,260.11a3.5,3.5,0,0,0,.58-7Z"/>
	</symbol>
	<symbol id="cart" viewBox="0 0 58 58">
	<path d="M22.887,21.146c0,1.229,0.479,2.386,1.35,3.256c0.195,0.195,0.451,0.293,0.707,0.293c0.256,0,0.512-0.098,0.707-0.293
		c0.391-0.391,0.391-1.023,0-1.414c-0.492-0.492-0.764-1.146-0.764-1.842s0.271-1.35,0.764-1.842c1.795-1.795,1.795-4.717,0-6.512
		c-0.391-0.391-1.023-0.391-1.414,0s-0.391,1.023,0,1.414c1.015,1.016,1.015,2.668,0,3.684
		C23.366,18.761,22.887,19.917,22.887,21.146z"/>
	<path d="M12,21.146c0,1.229,0.479,2.386,1.35,3.256c0.195,0.195,0.451,0.293,0.707,0.293c0.256,0,0.512-0.098,0.707-0.293
		c0.391-0.391,0.391-1.023,0-1.414C14.271,22.496,14,21.842,14,21.146s0.271-1.35,0.764-1.842c1.795-1.795,1.795-4.717,0-6.512
		c-0.391-0.391-1.023-0.391-1.414,0s-0.391,1.023,0,1.414c1.015,1.016,1.015,2.668,0,3.684C12.479,18.761,12,19.917,12,21.146z"/>
	<path d="M17.887,18.146c0,1.229,0.479,2.386,1.35,3.256c0.195,0.195,0.451,0.293,0.707,0.293c0.256,0,0.512-0.098,0.707-0.293
		c0.391-0.391,0.391-1.023,0-1.414c-0.492-0.492-0.764-1.146-0.764-1.842s0.271-1.35,0.764-1.842c1.795-1.795,1.795-4.717,0-6.512
		c-0.391-0.391-1.023-0.391-1.414,0s-0.391,1.023,0,1.414c1.015,1.016,1.015,2.668,0,3.684
		C18.366,15.761,17.887,16.917,17.887,18.146z"/>
	<path d="M14,38.5c-2.243,0-4,1.317-4,3s1.757,3,4,3s4-1.317,4-3S16.243,38.5,14,38.5z M14,42.5c-1.221,0-2-0.592-2-1s0.779-1,2-1
		s2,0.592,2,1S15.221,42.5,14,42.5z"/>
	<path d="M17,30.5c-2.243,0-4,1.317-4,3s1.757,3,4,3s4-1.317,4-3S19.243,30.5,17,30.5z M17,34.5c-1.221,0-2-0.592-2-1s0.779-1,2-1
		s2,0.592,2,1S18.221,34.5,17,34.5z"/>
	<path d="M27,34.5c2.243,0,4-1.317,4-3s-1.757-3-4-3s-4,1.317-4,3S24.757,34.5,27,34.5z M27,30.5c1.221,0,2,0.592,2,1s-0.779,1-2,1
		s-2-0.592-2-1S25.779,30.5,27,30.5z"/>
	<path d="M37,35.5c2.243,0,4-1.317,4-3s-1.757-3-4-3s-4,1.317-4,3S34.757,35.5,37,35.5z M37,31.5c1.221,0,2,0.592,2,1s-0.779,1-2,1
		s-2-0.592-2-1S35.779,31.5,37,31.5z"/>
	<path d="M50,36.5c0-1.683-1.757-3-4-3s-4,1.317-4,3s1.757,3,4,3S50,38.183,50,36.5z M46,37.5c-1.221,0-2-0.592-2-1s0.779-1,2-1
		s2,0.592,2,1S47.221,37.5,46,37.5z"/>
	<path d="M40,39.5c-2.243,0-4,1.317-4,3s1.757,3,4,3s4-1.317,4-3S42.243,39.5,40,39.5z M40,43.5c-1.221,0-2-0.592-2-1s0.779-1,2-1
		s2,0.592,2,1S41.221,43.5,40,43.5z"/>
	<path d="M29,41.5c-2.243,0-4,1.317-4,3s1.757,3,4,3s4-1.317,4-3S31.243,41.5,29,41.5z M29,45.5c-1.221,0-2-0.592-2-1s0.779-1,2-1
		s2,0.592,2,1S30.221,45.5,29,45.5z"/>
	<path d="M24.206,38.768c-0.404-0.087-0.802,0.086-1.025,0.405c-0.586,0.011-1.121,0.353-1.378,0.878
		c-0.7,0.028-1.32,0.527-1.471,1.243c-0.114,0.541,0.232,1.071,0.773,1.185c0.069,0.015,0.138,0.021,0.207,0.021
		c0.329,0,0.634-0.163,0.818-0.427c0.586-0.011,1.121-0.353,1.378-0.878c0.7-0.028,1.32-0.527,1.471-1.243
		C25.092,39.411,24.746,38.881,24.206,38.768z"/>
	<path d="M33.87,39.049c-0.291-0.508-0.847-0.778-1.431-0.788c-0.144-0.24-0.35-0.438-0.604-0.574
		c-0.37-0.199-0.795-0.243-1.195-0.119c-0.529,0.16-0.828,0.718-0.667,1.246c0.119,0.396,0.461,0.662,0.847,0.705
		c0.144,0.253,0.357,0.462,0.62,0.603c0.253,0.136,0.535,0.189,0.811,0.186c0.144,0.24,0.35,0.438,0.603,0.574
		c0.231,0.124,0.484,0.188,0.739,0.188c0.153,0,0.306-0.022,0.456-0.068c0.529-0.16,0.828-0.718,0.667-1.246
		C34.597,39.358,34.255,39.092,33.87,39.049z"/>
	<path d="M27.11,36.049c-0.291-0.508-0.838-0.787-1.431-0.788c-0.144-0.24-0.35-0.438-0.604-0.574
		c-0.37-0.198-0.795-0.242-1.195-0.119c-0.529,0.16-0.828,0.718-0.667,1.246c0.119,0.396,0.461,0.662,0.847,0.705
		c0.144,0.253,0.357,0.462,0.62,0.603c0.253,0.136,0.536,0.189,0.811,0.186c0.144,0.24,0.35,0.438,0.603,0.574
		c0.231,0.124,0.484,0.188,0.739,0.188c0.153,0,0.306-0.022,0.456-0.068c0.529-0.16,0.828-0.718,0.667-1.246
		C27.838,36.358,27.496,36.092,27.11,36.049z"/>
	<path d="M57.846,47.093c0.013-0.159,0.011-0.319-0.027-0.479l-7.754-19.972l4.906-19.903c0.008-0.034-0.003-0.068,0.002-0.102
		C54.979,6.591,55,6.549,55,6.5v-3c0-0.553-0.447-1-1-1H4c-0.552,0-1,0.447-1,1v3c0,0.553,0.448,1,1,1h0.149l4.197,18.466
		c-0.174,0.176-0.32,0.382-0.394,0.632l-7.73,19.884l-0.041,0.133c-0.044,0.187-0.044,0.374-0.019,0.558
		C0.068,47.348,0,47.54,0,47.753v6.158C0,54.787,0.713,55.5,1.589,55.5h54.822c0.876,0,1.589-0.713,1.589-1.589v-6.283
		C58,47.431,57.936,47.255,57.846,47.093z M34.429,46.5h-0.031c-0.718,0-1.334,0.501-1.5,1.22c-0.03,0.13-0.08,0.251-0.126,0.375
		c-0.026,0.071-0.043,0.146-0.074,0.215c-0.044,0.097-0.104,0.185-0.157,0.277c-0.049,0.085-0.091,0.175-0.148,0.256
		c-0.041,0.058-0.093,0.108-0.137,0.163c-0.085,0.105-0.166,0.214-0.263,0.31c-0.024,0.023-0.052,0.042-0.077,0.065
		c-0.583,0.547-1.358,0.932-2.224,1.066C29.467,50.482,29.235,50.5,29,50.5s-0.467-0.018-0.692-0.053
		c-0.876-0.135-1.661-0.527-2.245-1.084c-0.017-0.017-0.038-0.03-0.055-0.047c-0.102-0.102-0.189-0.215-0.278-0.327
		c-0.04-0.05-0.087-0.095-0.123-0.147c-0.064-0.091-0.111-0.19-0.165-0.286c-0.046-0.082-0.101-0.16-0.14-0.246
		c-0.039-0.085-0.061-0.178-0.092-0.266c-0.038-0.108-0.084-0.213-0.109-0.325c-0.165-0.718-0.781-1.219-1.499-1.219h-0.031H10.773
		C7.78,44.564,6,40.952,6,38.5c0-5.963,10.533-11,23-11s23,5.037,23,11c0,2.452-1.78,6.064-4.773,8H34.429z M9.747,27.5h5.761
		c-2.833,0.928-5.264,2.145-7.152,3.579L9.747,27.5z M49.644,31.078c-1.888-1.434-4.319-2.65-7.152-3.578h5.761L49.644,31.078z
		 M53.557,41.144l2.082,5.356h-5.302C51.909,44.9,53,42.962,53.557,41.144z M5,4.5h48v1H32.93c-0.313,0-0.608,0.146-0.798,0.396
		c-0.189,0.25-0.25,0.574-0.165,0.876C31.989,6.85,32,6.924,32,7c0,0.71-1.027,1.5-2.5,1.5S27,7.71,27,7
		c0-0.076,0.011-0.15,0.033-0.228c0.085-0.302,0.024-0.626-0.165-0.876C26.679,5.646,26.384,5.5,26.07,5.5H5V4.5z M25.043,7.5
		c0.303,1.718,2.152,3,4.457,3s4.153-1.282,4.457-3h18.767l-4.437,18H10.292L6.2,7.5H25.043z M4.443,41.143
		C5,42.962,6.091,44.9,7.664,46.5H2.361L4.443,41.143z M56,53.5H2v-5h8.208h13.032c0.709,2.37,3.032,4,5.761,4
		c2.729,0,5.052-1.63,5.761-4h13.032H56V53.5z"/>
</symbol>
<symbol id="cartempty" viewBox="0 0 58 58">
	<path d="M57.846,47.093c0.013-0.159,0.011-0.319-0.027-0.479l-7.754-19.972l4.906-19.903c0.008-0.034-0.003-0.068,0.002-0.102
		C54.979,6.591,55,6.549,55,6.5v-3c0-0.553-0.447-1-1-1H4c-0.552,0-1,0.447-1,1v3c0,0.553,0.448,1,1,1h0.149l4.197,18.466
		c-0.174,0.176-0.32,0.382-0.394,0.632l-7.73,19.884l-0.041,0.133c-0.044,0.187-0.044,0.374-0.019,0.558
		C0.068,47.348,0,47.54,0,47.753v6.158C0,54.787,0.713,55.5,1.589,55.5h54.822c0.876,0,1.589-0.713,1.589-1.589v-6.283
		C58,47.431,57.936,47.255,57.846,47.093z M34.429,46.5h-0.031c-0.718,0-1.334,0.501-1.5,1.22c-0.03,0.13-0.08,0.251-0.126,0.375
		c-0.026,0.071-0.043,0.146-0.074,0.215c-0.044,0.097-0.104,0.185-0.157,0.277c-0.049,0.085-0.091,0.175-0.148,0.256
		c-0.041,0.058-0.093,0.108-0.137,0.163c-0.085,0.105-0.166,0.214-0.263,0.31c-0.024,0.023-0.052,0.042-0.077,0.065
		c-0.583,0.547-1.358,0.932-2.224,1.066C29.467,50.482,29.235,50.5,29,50.5s-0.467-0.018-0.692-0.053
		c-0.876-0.135-1.661-0.527-2.245-1.084c-0.017-0.017-0.038-0.03-0.055-0.047c-0.102-0.102-0.189-0.215-0.278-0.327
		c-0.04-0.05-0.087-0.095-0.123-0.147c-0.064-0.091-0.111-0.19-0.165-0.286c-0.046-0.082-0.101-0.16-0.14-0.246
		c-0.039-0.085-0.061-0.178-0.092-0.266c-0.038-0.108-0.084-0.213-0.109-0.325c-0.165-0.718-0.781-1.219-1.499-1.219h-0.031H10.773
		C7.78,44.564,6,40.952,6,38.5c0-5.963,10.533-11,23-11s23,5.037,23,11c0,2.452-1.78,6.064-4.773,8H34.429z M9.747,27.5h5.761
		c-2.833,0.928-5.264,2.145-7.152,3.579L9.747,27.5z M49.644,31.078c-1.888-1.434-4.319-2.65-7.152-3.578h5.761L49.644,31.078z
		 M53.557,41.144l2.082,5.356h-5.302C51.909,44.9,53,42.962,53.557,41.144z M5,4.5h48v1H32.93c-0.313,0-0.608,0.146-0.798,0.396
		c-0.189,0.25-0.25,0.574-0.165,0.876C31.989,6.85,32,6.924,32,7c0,0.71-1.027,1.5-2.5,1.5S27,7.71,27,7
		c0-0.076,0.011-0.15,0.033-0.228c0.085-0.302,0.024-0.626-0.165-0.876C26.679,5.646,26.384,5.5,26.07,5.5H5V4.5z M25.043,7.5
		c0.303,1.718,2.152,3,4.457,3s4.153-1.282,4.457-3h18.767l-4.437,18H10.292L6.2,7.5H25.043z M4.443,41.143
		C5,42.962,6.091,44.9,7.664,46.5H2.361L4.443,41.143z M56,53.5H2v-5h8.208h13.032c0.709,2.37,3.032,4,5.761,4
		c2.729,0,5.052-1.63,5.761-4h13.032H56V53.5z"/>
</symbol>
<symbol id="phone" viewBox="0 0 512 512">
	<path d="M497.39 361.8l-112-48a24 24 0 0 0-28 6.9l-49.6 60.6A370.66 370.66 0 0 1 130.6 204.11l60.6-49.6a23.94 23.94 0 0 0 6.9-28l-48-112A24.16 24.16 0 0 0 122.6.61l-104 24A24 24 0 0 0 0 48c0 256.5 207.9 464 464 464a24 24 0 0 0 23.4-18.6l24-104a24.29 24.29 0 0 0-14.01-27.6z"></path>
</symbol>
<symbol id="map" viewBox="0 0 384 512">
	<path d="M172.268 501.67C26.97 291.031 0 269.413 0 192 0 85.961 85.961 0 192 0s192 85.961 192 192c0 77.413-26.97 99.031-172.268 309.67-9.535 13.774-29.93 13.773-39.464 0zM192 272c44.183 0 80-35.817 80-80s-35.817-80-80-80-80 35.817-80 80 35.817 80 80 80z"></path>
</symbol>
<symbol id="moto" viewBox="0 0 424.862 424.862">
	<path d="M413.909,311.887c1.121-5.759,0.753-12.313-1.141-19.134c-12.417-44.727-49.571-136.302-80.446-174.018
		c-8.102-9.897-23.71-9.042-32.759,0c-3.981,3.983-6.193,9.056-6.665,14.258c-2.424-2.242-5.498-3.79-8.891-4.233
		c0,0-78.308-9.758-79.258-9.634h-35.611c-11.604,0-15,6.729-15,15v114.319h-26.136V125.852c0-6.065-4.935-11-11-11H11
		c-6.065,0-11,4.935-11,11c0,0,0.038,172.145,0.038,183.28c0,12.791,10.369,23.159,23.159,23.159h22.726
		c-1.174,4.781-1.809,9.772-1.809,14.91c0,34.504,28.076,62.574,62.585,62.574c34.507,0,62.581-28.07,62.581-62.574
		c0-5.138-0.636-10.129-1.809-14.91h70.042v15.344c0,12.131,9.869,22,22,22h0.421c5.867,0,11.375-2.3,15.509-6.476
		c4.134-4.177,6.377-9.707,6.318-15.574l-0.156-15.294h19.902c-1.174,4.781-1.809,9.772-1.809,14.91
		c0,34.504,28.076,62.574,62.585,62.574c34.507,0,62.581-28.07,62.581-62.574C424.862,334.108,420.812,321.946,413.909,311.887z
		 M362.281,323.584c13.022,0,23.616,10.595,23.616,23.617s-10.594,23.617-23.616,23.617c-13.027,0-23.625-10.595-23.625-23.617
		S349.253,323.584,362.281,323.584z M130.314,347.201c0,13.022-10.594,23.617-23.616,23.617c-13.027,0-23.625-10.595-23.625-23.617
		s10.598-23.617,23.625-23.617C119.72,323.584,130.314,334.179,130.314,347.201z M280.78,251.816
		c-0.123-12.103-10.07-21.948-22.173-21.948H222v-74.753l17.9,2.199c1.457,6.695,7.409,11.711,14.539,11.711h62.658l4.857,40.464
		l-41.057,53.753L280.78,251.816z"/>
	<path d="M182.625,103.09c24.263,0,44.002-19.739,44.002-44.003c0-3.085-0.323-6.096-0.93-9.004l9.654-0.19
		c5.751-0.114,11.951-4.118,14.42-9.315l3.238-6.814c1.538-3.237,1.458-6.617-0.222-9.274c-1.678-2.655-4.692-4.178-8.302-4.178
		l-40.903,0.095c-6.235-3.392-13.375-5.319-20.958-5.319c-24.263,0-44.002,19.738-44.002,44.001
		C138.623,83.351,158.362,103.09,182.625,103.09z"/>
</symbol>
<symbol id="check"  viewBox="0 0 512 512">
<path d="M173.898 439.404l-166.4-166.4c-9.997-9.997-9.997-26.206 0-36.204l36.203-36.204c9.997-9.998 26.207-9.998 36.204 0L192 312.69 432.095 72.596c9.997-9.997 26.207-9.997 36.204 0l36.203 36.204c9.997 9.997 9.997 26.206 0 36.204l-294.4 294.401c-9.998 9.997-26.207 9.997-36.204-.001z"></path>
</symbol>
<symbol id="times"  viewBox="0 0 352 512">>
<path d="M242.72 256l100.07-100.07c12.28-12.28 12.28-32.19 0-44.48l-22.24-22.24c-12.28-12.28-32.19-12.28-44.48 0L176 189.28 75.93 89.21c-12.28-12.28-32.19-12.28-44.48 0L9.21 111.45c-12.28 12.28-12.28 32.19 0 44.48L109.28 256 9.21 356.07c-12.28 12.28-12.28 32.19 0 44.48l22.24 22.24c12.28 12.28 32.2 12.28 44.48 0L176 322.72l100.07 100.07c12.28 12.28 32.2 12.28 44.48 0l22.24-22.24c12.28-12.28 12.28-32.19 0-44.48L242.72 256z"></path>
</symbol>
<symbol id="size"  viewBox="0 0 448 512">
<path d="M212.686 315.314L120 408l32.922 31.029c15.12 15.12 4.412 40.971-16.97 40.971h-112C10.697 480 0 469.255 0 456V344c0-21.382 25.803-32.09 40.922-16.971L72 360l92.686-92.686c6.248-6.248 16.379-6.248 22.627 0l25.373 25.373c6.249 6.248 6.249 16.378 0 22.627zm22.628-118.628L328 104l-32.922-31.029C279.958 57.851 290.666 32 312.048 32h112C437.303 32 448 42.745 448 56v112c0 21.382-25.803 32.09-40.922 16.971L376 152l-92.686 92.686c-6.248 6.248-16.379 6.248-22.627 0l-25.373-25.373c-6.249-6.248-6.249-16.378 0-22.627z"></path>
</symbol>
<symbol id="weight" viewBox="0 0 512 512"><path d="M448 64h-25.98C438.44 92.28 448 125.01 448 160c0 105.87-86.13 192-192 192S64 265.87 64 160c0-34.99 9.56-67.72 25.98-96H64C28.71 64 0 92.71 0 128v320c0 35.29 28.71 64 64 64h384c35.29 0 64-28.71 64-64V128c0-35.29-28.71-64-64-64zM256 320c88.37 0 160-71.63 160-160S344.37 0 256 0 96 71.63 96 160s71.63 160 160 160zm-.3-151.94l33.58-78.36c3.5-8.17 12.94-11.92 21.03-8.41 8.12 3.48 11.88 12.89 8.41 21l-33.67 78.55C291.73 188 296 197.45 296 208c0 22.09-17.91 40-40 40s-40-17.91-40-40c0-21.98 17.76-39.77 39.7-39.94z"></path><path d="M212.686 315.314L120 408l32.922 31.029c15.12 15.12 4.412 40.971-16.97 40.971h-112C10.697 480 0 469.255 0 456V344c0-21.382 25.803-32.09 40.922-16.971L72 360l92.686-92.686c6.248-6.248 16.379-6.248 22.627 0l25.373 25.373c6.249 6.248 6.249 16.378 0 22.627zm22.628-118.628L328 104l-32.922-31.029C279.958 57.851 290.666 32 312.048 32h112C437.303 32 448 42.745 448 56v112c0 21.382-25.803 32.09-40.922 16.971L376 152l-92.686 92.686c-6.248 6.248-16.379 6.248-22.627 0l-25.373-25.373c-6.249-6.248-6.249-16.378 0-22.627z"></path>
</symbol>
<symbol id="facebook" viewBox="0 0 320 512"><path d="M279.14 288l14.22-92.66h-88.91v-60.13c0-25.35 12.42-50.06 52.24-50.06h40.42V6.26S260.43 0 225.36 0c-73.22 0-121.08 44.38-121.08 124.72v70.62H22.89V288h81.39v224h100.17V288z">
</path>
</symbol>
<symbol id="instagram" viewBox="0 0 448 512">
<path d="M224.1 141c-63.6 0-114.9 51.3-114.9 114.9s51.3 114.9 114.9 114.9S339 319.5 339 255.9 287.7 141 224.1 141zm0 189.6c-41.1 0-74.7-33.5-74.7-74.7s33.5-74.7 74.7-74.7 74.7 33.5 74.7 74.7-33.6 74.7-74.7 74.7zm146.4-194.3c0 14.9-12 26.8-26.8 26.8-14.9 0-26.8-12-26.8-26.8s12-26.8 26.8-26.8 26.8 12 26.8 26.8zm76.1 27.2c-1.7-35.9-9.9-67.7-36.2-93.9-26.2-26.2-58-34.4-93.9-36.2-37-2.1-147.9-2.1-184.9 0-35.8 1.7-67.6 9.9-93.9 36.1s-34.4 58-36.2 93.9c-2.1 37-2.1 147.9 0 184.9 1.7 35.9 9.9 67.7 36.2 93.9s58 34.4 93.9 36.2c37 2.1 147.9 2.1 184.9 0 35.9-1.7 67.7-9.9 93.9-36.2 26.2-26.2 34.4-58 36.2-93.9 2.1-37 2.1-147.8 0-184.8zM398.8 388c-7.8 19.6-22.9 34.7-42.6 42.6-29.5 11.7-99.5 9-132.1 9s-102.7 2.6-132.1-9c-19.6-7.8-34.7-22.9-42.6-42.6-11.7-29.5-9-99.5-9-132.1s-2.6-102.7 9-132.1c7.8-19.6 22.9-34.7 42.6-42.6 29.5-11.7 99.5-9 132.1-9s102.7-2.6 132.1 9c19.6 7.8 34.7 22.9 42.6 42.6 11.7 29.5 9 99.5 9 132.1s2.7 102.7-9 132.1z">
</path>
</symbol>
<symbol id="pinterest" viewBox="0 0 496 512">
<path d="M496 256c0 137-111 248-248 248-25.6 0-50.2-3.9-73.4-11.1 10.1-16.5 25.2-43.5 30.8-65 3-11.6 15.4-59 15.4-59 8.1 15.4 31.7 28.5 56.8 28.5 74.8 0 128.7-68.8 128.7-154.3 0-81.9-66.9-143.2-152.9-143.2-107 0-163.9 71.8-163.9 150.1 0 36.4 19.4 81.7 50.3 96.1 4.7 2.2 7.2 1.2 8.3-3.3.8-3.4 5-20.3 6.9-28.1.6-2.5.3-4.7-1.7-7.1-10.1-12.5-18.3-35.3-18.3-56.6 0-54.7 41.4-107.6 112-107.6 60.9 0 103.6 41.5 103.6 100.9 0 67.1-33.9 113.6-78 113.6-24.3 0-42.6-20.1-36.7-44.8 7-29.5 20.5-61.3 20.5-82.6 0-19-10.2-34.9-31.4-34.9-24.9 0-44.9 25.7-44.9 60.2 0 22 7.4 36.8 7.4 36.8s-24.5 103.8-29 123.2c-5 21.4-3 51.6-.9 71.2C65.4 450.9 0 361.1 0 256 0 119 111 8 248 8s248 111 248 248z">
</path>
</symbol>
<svg id="twitter" viewBox="0 0 512 512">
<path d="M459.37 151.716c.325 4.548.325 9.097.325 13.645 0 138.72-105.583 298.558-298.558 298.558-59.452 0-114.68-17.219-161.137-47.106 8.447.974 16.568 1.299 25.34 1.299 49.055 0 94.213-16.568 130.274-44.832-46.132-.975-84.792-31.188-98.112-72.772 6.498.974 12.995 1.624 19.818 1.624 9.421 0 18.843-1.3 27.614-3.573-48.081-9.747-84.143-51.98-84.143-102.985v-1.299c13.969 7.797 30.214 12.67 47.431 13.319-28.264-18.843-46.781-51.005-46.781-87.391 0-19.492 5.197-37.36 14.294-52.954 51.655 63.675 129.3 105.258 216.365 109.807-1.624-7.797-2.599-15.918-2.599-24.04 0-57.828 46.782-104.934 104.934-104.934 30.213 0 57.502 12.67 76.67 33.137 23.715-4.548 46.456-13.32 66.599-25.34-7.798 24.366-24.366 44.833-46.132 57.827 21.117-2.273 41.584-8.122 60.426-16.243-14.292 20.791-32.161 39.308-52.628 54.253z">
</path>
</svg>
</svg>
