<svg display="none" xmlns="http://www.w3.org/2000/svg">
				<symbol id="menu"  viewBox="0 0 24 24">
					<path d="M24 6h-24v-4h24v4zm0 4h-24v4h24v-4zm0 8h-24v4h24v-4z"/>
				</symbol>
				<symbol id="scroll">
					<path width="24" height="24" d="M11 21.883l-6.235-7.527-.765.644 7.521 9 7.479-9-.764-.645-6.236 7.529v-21.884h-1v21.883z"/>
				</symbol>
				<symbol id="close" viewBox="0 0 24 24">
					<path d="M23.954 21.03l-9.184-9.095 9.092-9.174-2.832-2.807-9.09 9.179-9.176-9.088-2.81 2.81 9.186 9.105-9.095 9.184 2.81 2.81 9.112-9.192 9.18 9.1z"/>
				</symbol>
				<symbol id="facebook" viewBox="0 0 24 24">>
					<path d="M12 0c-6.627 0-12 5.373-12 12s5.373 12 12 12 12-5.373 12-12-5.373-12-12-12zm3 8h-1.35c-.538 0-.65.221-.65.778v1.222h2l-.209 2h-1.791v7h-3v-7h-2v-2h2v-2.308c0-1.769.931-2.692 3.029-2.692h1.971v3z"/>
				</symbol>
				<symbol id="twitter" viewBox="0 0 24 24">
					<path d="M12 0c-6.627 0-12 5.373-12 12s5.373 12 12 12 12-5.373 12-12-5.373-12-12-12zm6.066 9.645c.183 4.04-2.83 8.544-8.164 8.544-1.622 0-3.131-.476-4.402-1.291 1.524.18 3.045-.244 4.252-1.189-1.256-.023-2.317-.854-2.684-1.995.451.086.895.061 1.298-.049-1.381-.278-2.335-1.522-2.304-2.853.388.215.83.344 1.301.359-1.279-.855-1.641-2.544-.889-3.835 1.416 1.738 3.533 2.881 5.92 3.001-.419-1.796.944-3.527 2.799-3.527.825 0 1.572.349 2.096.907.654-.128 1.27-.368 1.824-.697-.215.671-.67 1.233-1.263 1.589.581-.07 1.135-.224 1.649-.453-.384.578-.87 1.084-1.433 1.489z"/>
				</symbol>
				<symbol id="dribble" viewBox="0 0 24 24">
					<path d="M11.455 9.985c-1.419.417-3.11.632-5.067.646.405-1.654 1.518-3.03 3.003-3.784.777 1.016 1.464 2.063 2.064 3.138zm.965 1.93c-.124-.28-.254-.559-.391-.835-1.622.51-3.561.769-5.804.772l-.008.148c0 1.404.504 2.692 1.34 3.695 1.266-1.901 2.891-3.164 4.863-3.78zm-3.97 4.641c1.569 1.225 3.671 1.589 5.624.836-.252-1.488-.65-2.94-1.19-4.352-1.819.542-3.285 1.714-4.434 3.516zm7.075-9.13c-.977-.754-2.197-1.209-3.525-1.209-.49 0-.964.068-1.418.184.764 1.028 1.441 2.086 2.035 3.172 1.236-.524 2.204-1.24 2.908-2.147zm8.475 4.574c0 6.627-5.373 12-12 12s-12-5.373-12-12 5.373-12 12-12 12 5.373 12 12zm-5 0c0-3.866-3.135-7-7-7s-7 3.134-7 7 3.135 7 7 7 7-3.134 7-7zm-5.824-1.349c.157.324.305.651.447.98 1.26-.217 2.641-.204 4.143.042-.073-1.292-.566-2.474-1.354-3.403-.807 1.005-1.89 1.798-3.236 2.381zm.914 2.132c.489 1.309.865 2.651 1.119 4.023 1.312-.88 2.241-2.284 2.497-3.909-1.317-.228-2.522-.268-3.616-.114z"/>
				</symbol>
				<symbol id="behance" viewBox="0 0 24 24">
					<path d="M8.84 10.835h-1.965v-1.859h1.783c1.878 0 1.646 1.859.182 1.859zm5.789 1.058h2.624c-.115-1.687-2.36-1.81-2.624 0zm-5.9.396h-1.854v1.947h1.824c1.782-.001 1.673-1.947.03-1.947zm15.271-.289c0 6.627-5.373 12-12 12s-12-5.373-12-12 5.373-12 12-12 12 5.373 12 12zm-13.357-.733c1.668-.853 1.607-3.981-1.587-4.028h-4.056v8.73h3.771c3.958 0 3.891-3.967 1.872-4.702zm3.357-3.166h4v-.875h-4v.875zm4.943 3.693c-.545-3.505-6.053-3.711-6.053.872 0 4.526 5.18 3.818 5.949 1.56h-1.848c-.645.748-2.508.531-2.404-1.184h4.41c.009-.555-.009-.953-.054-1.248z"/>
				</symbol>
			</svg>