<svg display="none" xmlns="http://www.w3.org/2000/svg">
	<symbol id="cart" viewBox="0 0 395.025 395.025">
		<path d="M357.507,380.982L337.914,82.223c-0.431-6.572-5.887-11.682-12.473-11.682h-54.69V62.5c0-34.462-28.038-62.5-62.5-62.5
			h-21.495c-34.462,0-62.5,28.038-62.5,62.5v8.041h-54.69c-6.586,0-12.042,5.11-12.473,11.682L37.45,381.709
			c-0.227,3.449,0.986,6.838,3.35,9.361c2.364,2.525,5.666,3.955,9.124,3.955h295.159c0.007,0,0.013,0,0.02,0
			c6.903,0,12.5-5.596,12.5-12.5C357.601,382.004,357.57,381.488,357.507,380.982z M149.255,62.5c0-20.678,16.822-37.5,37.5-37.5
			h21.495c20.678,0,37.5,16.822,37.5,37.5v8.041h-96.495V62.5z M63.27,370.025L81.272,95.542h42.983v11.154
			c-8.895,4.56-15,13.818-15,24.482c0,15.164,12.336,27.5,27.5,27.5s27.5-12.336,27.5-27.5c0-10.664-6.105-19.922-15-24.482V95.542
			h96.495v11.154c-8.896,4.56-15,13.818-15,24.482c0,15.164,12.336,27.5,27.5,27.5s27.5-12.336,27.5-27.5
			c0-10.664-6.105-19.922-15-24.482V95.542h42.983l18.002,274.483H63.27z"/>
		</symbol>
		<symbol id="info" viewBox="0 0 500 500">
			<g>
				<g>
					<path d="M250,410.7L203.3,364H72.1V90.3h355.9V364H296.7L250,410.7z M99.4,336.6h115.2L250,372l35.4-35.4h115.2v-219H99.4V336.6z"/>
				</g>
				<g>
					<rect height="27.4" width="191.6" x="154.2" y="158.7"/>
				</g>
				<g>
					<rect height="27.4" width="191.6" x="154.2" y="213.4"/>
				</g>
				<g>
					<rect height="27.4" width="136.9" x="154.2" y="268.2"/>
				</g>
			</g>
		</symbol>
		<symbol id="rating" viewBox="0 0 1137.000000 1280.000000">
			<g transform="translate(0.000000,1280.000000) scale(0.100000,-0.100000)" stroke="none">
				<path d="M5627 12712 c-315 -496 -846 -1081 -1469 -1618 -336 -290 -572 -477
					-1253 -994 -481 -365 -783 -597 -945 -729 -1167 -948 -1699 -1689 -1870 -2604
					-175 -934 -88 -1745 250 -2333 107 -186 181 -284 330 -437 486 -502 1192 -767
					2115 -793 682 -20 1270 122 1723 416 252 163 499 410 662 661 l42 64 -7 -100
					c-26 -416 -91 -1059 -140 -1383 -200 -1321 -628 -2032 -1497 -2486 -256 -134
					-533 -236 -903 -331 l-170 -44 3185 0 3185 0 -185 49 c-345 91 -577 175 -840
					307 -536 267 -911 642 -1160 1158 -247 514 -387 1169 -480 2245 -31 362 -47
					575 -44 578 1 2 27 -34 57 -80 305 -460 762 -781 1342 -944 124 -35 303 -69
					475 -91 199 -24 698 -24 915 1 760 88 1302 313 1718 715 630 609 838 1543 622
					2790 -162 927 -690 1674 -1860 2627 -174 142 -441 348 -933 721 -890 676
					-1206 933 -1653 1349 -422 393 -837 879 -1099 1286 l-57 89 -56 -89z"/>
				</g>
			</symbol>
			<symbol id="star" viewBox="0 0 576 512">
				<path d="M259.3 17.8L194 150.2 47.9 171.5c-26.2 3.8-36.7 36.1-17.7 54.6l105.7 103-25 145.5c-4.5 26.3 23.2 46 46.4 33.7L288 439.6l130.7 68.7c23.2 12.2 50.9-7.4 46.4-33.7l-25-145.5 105.7-103c19-18.5 8.5-50.8-17.7-54.6L382 150.2 316.7 17.8c-11.7-23.6-45.6-23.9-57.4 0z"></path>
			</symbol>
		</svg>