<svg xmlns="http://www.w3.org/2000/svg" viewBox="0 0 59.907 59.91"><path class="za" d="M29.969.02a29.925 29.925 0 1 1-11.672 2.32A29.593 29.593 0 0 1 29.969.02zm0 57.51a26.481 26.481 0 0 0 10.758-2.18 26.615 26.615 0 0 0 14.625-14.62 27.656 27.656 0 0 0 0-21.52A26.615 26.615 0 0 0 40.727 4.59a27.635 27.635 0 0 0-21.516 0A26.615 26.615 0 0 0 4.586 19.21a27.644 27.644 0 0 0 0 21.52 26.615 26.615 0 0 0 14.625 14.62 26.467 26.467 0 0 0 10.758 2.18zm15.047-38.25a1.416 1.416 0 0 1 1.195-.56 1.847 1.847 0 0 1 1.336.56 2.178 2.178 0 0 1 .422 1.34 1.4 1.4 0 0 1-.563 1.19L26.875 41.78a.637.637 0 0 1-.492.35 3.04 3.04 0 0 1-.633.07 3.714 3.714 0 0 1-.773-.07.63.63 0 0 1-.492-.35l-8.016-8.01a1.831 1.831 0 0 1-.562-1.34 1.967 1.967 0 0 1 1.757-1.76 1.818 1.818 0 0 1 1.336.57l6.75 6.75 19.266-18.71z"/></svg>